<svg width="140" height="18" fill="none" xmlns="http://www.w3.org/2000/svg"><g opacity=".4" fill="#fff"><path d="M72 2.4c.2.2.3.5.3.7v12.5c0 .4-.2.8-.6 1.1-.3.4-.7.5-1.2.5h-5.1v.8h6c.4 0 .8-.2 1.1-.5.4-.3.5-.7.5-1.2V4c0-.3 0-.6-.2-.9-.2-.3-.4-.5-.7-.6ZM80 2.2v15h-2v.8h2.8V2.2h-.7ZM92.5 2.2v15h-2.2l.2.8h2.8V2.2h-.8ZM87.7 10.4v6.8h-2v.8h2.7v-5l-.7-2.6ZM99.9 11.5h2.3v-.8h-3.1c-.3 0-.5 0-.8-.2l.7.7c.2.2.6.2.9.3ZM101 12.5l-.8.1v1.9h.8v-2ZM104.8 2.4c.2.2.2.5.2.7v3.2l-2 .5v1l2.8-.7V3.9c0-.3 0-.6-.3-.9-.1-.3-.4-.5-.7-.6ZM35 2.4l.1.7v12.5c0 .4-.2.8-.5 1.1-.3.4-.8.5-1.2.5h-4.2l-.8-.1c.2.2.4.5.7.6.2.2.5.3.9.3h4.2c.4 0 .9-.2 1.2-.5.3-.3.5-.7.5-1.2V4l-.3-.9c-.1-.3-.4-.5-.7-.6ZM42.8 8h.7V5h1.3v-.8h-2V8ZM47.4 11.3l.7-.6c.2-.3.3-.6.3-1V4l-.3-1-.7-.5.2.7v6l-.3.8c-.1.3-.4.5-.7.6l1.2 6.7h-2.2l.2.8h2.8l-1.2-6.7ZM43.8 10.7h-1v6.5h-2v.8h2.7v-6.5h.5l-.2-.8ZM54.9 14.5h.8V4.9h1.2v-.7h-2v10.3ZM17.7 8h.8V5h1.3v-.8h-2V8ZM23.4 8.5V4L23 3c-.2-.3-.4-.5-.7-.6l.2.7v4.7A1.6 1.6 0 0 1 22 9a2 2 0 0 1 .6 1.4v5.2c0 .4-.2.8-.5 1.1-.3.4-.8.5-1.3.5h-5v.8h5.9c.4 0 .8-.2 1.2-.5.3-.3.5-.7.5-1.2v-5.1a1.8 1.8 0 0 0-.7-1.4 1.6 1.6 0 0 0 .7-1.3Z"/><path d="m59.7 3.1-.1-.7c.3.1.5.3.7.6l.2.9v12.4c0 .5-.2.9-.5 1.2-.3.3-.7.5-1.2.5h-4.2c-.3 0-.6 0-1-.3l-.5-.6.7.1H58c.5 0 1-.1 1.2-.5.4-.3.5-.7.5-1.1V3ZM68.2 14.5h-.8V4.2h2v.7h-1.2v9.6ZM105 9.6c0-.2 0-.5-.2-.7.3.1.6.4.7.6l.3.9v6c0 .4-.2.8-.5 1.1-.3.3-.8.5-1.2.5h-4.2c-.3 0-.7 0-1-.3l-.6-.6.8.1h4.2c.5 0 .9-.1 1.2-.5.3-.3.5-.7.5-1.1v-6ZM100.2 8V4h2V5H101v3h-.8ZM112.7 10.7h.2l.6 1.6V18h-2.8v-.8h2v-6.5ZM117.6 2.2h1l-2.5 7.9 2.6 7.9h-2.8v-.1l-.3-.7h2.3l-2.6-7.9 2.3-7ZM125.3 17.2v-15h.7V18h-2.8v-.8h2ZM137 11.4l2.2-2 .8.7-2.2 2-.8-.7ZM3.6 11.4l2.2-2 .8.7-2.1 2-.9-.7ZM18.5 14.5h-.8v-3.8h2v.8h-1.2v3ZM31 14.5h-.8V4.2h2v.7H31v9.6Z"/></g><path d="M2.2 5.8 0 7.8 2.2 10l2.1-2.1-2.1-2.1ZM135.6 5.8l-2.2 2 2.2 2.2 2.1-2.1-2.1-2.1Z" fill="#fff"/><path fill-rule="evenodd" clip-rule="evenodd" d="M21 7V1.7c0-.5-.1-.9-.4-1.2-.3-.3-.8-.5-1.2-.5h-6v15.8h6c.4 0 .9-.2 1.2-.5.3-.3.5-.7.5-1.2V9a1.9 1.9 0 0 0-.6-1.4l.4-.6Zm-4.8-4.3h2v3.8h-2V2.7Zm0 6.5h2v3.9h-2V9.2ZM33 .5C32.9.2 32.4 0 32 0h-4.2a1.8 1.8 0 0 0-1.3.5 1.7 1.7 0 0 0-.5 1.2V14c0 .5.2.9.5 1.2.4.3.8.5 1.3.5h4.2c.4 0 .9-.2 1.2-.5.3-.3.5-.7.5-1.2V1.7c0-.5-.2-.9-.5-1.2Zm-4.3 2.2h2v10.4h-2V2.7ZM42.3 9.2l1.2 6.6h2.8L45 9l.7-.6c.2-.3.3-.6.3-1V1.8a1.6 1.6 0 0 0-.5-1.2 1.7 1.7 0 0 0-1.2-.5h-6v15.8h2.9V9.2h1Zm-1-6.5h2v3.8h-2V2.7ZM57.7.5C57.4.2 57 0 56.5 0h-4.2c-.5 0-.9.2-1.2.5-.3.3-.5.7-.5 1.2V14c0 .5.2.9.5 1.2.3.3.8.5 1.2.5h4.2c.5 0 1-.2 1.2-.5.4-.3.5-.7.5-1.2V1.7c0-.5-.1-.9-.5-1.2Zm-4.3 2.2h2v10.4h-2V2.7ZM70.2.5C70 .2 69.5 0 69 0h-5.9v15.8h6c.4 0 .8-.2 1.1-.5.4-.3.5-.7.6-1.2V1.7c0-.5-.2-.9-.6-1.2ZM66 2.7h2v10.4h-2V2.7Z" fill="#fff"/><path d="M78.6 0h-2.8v15.8h2.8V0ZM91 15.8V0h-2.8v6.5l-2-6.5h-2.8v15.8h2.8v-7l2 7H91ZM103 7c-.3-.3-.7-.5-1.2-.5h-3.1V2.7h2v2.8l2.8-.6V1.7c0-.5-.2-.9-.5-1.2-.3-.3-.7-.5-1.2-.5h-4.2a1.8 1.8 0 0 0-1.2.5 1.7 1.7 0 0 0-.5 1.2v5.9a1.6 1.6 0 0 0 .5 1.1 1.7 1.7 0 0 0 1.2.5h3.1v3.9h-2v-2.9l-2.8.7V14c0 .5.2.9.5 1.2.3.3.7.5 1.2.5h4.2c.5 0 .9-.2 1.2-.5.3-.3.5-.7.5-1.2v-6c0-.4-.2-.8-.5-1ZM116.4 15.8l-2.6-8 2.6-7.8h-2.8l-2.2 6.5h-.2V0h-2.8v15.8h2.8V9.2h.2l2.1 6.5h2.9ZM123.8 0H121v15.8h2.8V0Z" fill="#fff"/></svg>