<svg width="367" height="152" fill="none" xmlns="http://www.w3.org/2000/svg"><g clip-path="url(#a)" fill="#fff"><g opacity=".4"><path d="M189 57.9c.2.6.4 1.3.4 2v33.7a4.6 4.6 0 0 1-4.5 4.6h-13.5v2H187a4.6 4.6 0 0 0 4.6-4.5V61.9a4.5 4.5 0 0 0-2.6-4ZM209.8 57.4V98h-5.2v2.1h7.3V57.4h-2ZM242.5 57.4V98h-5.9l.6 2.1h7.4V57.4h-2.1ZM229.8 79.5V98h-5.3v2.1h7.3V86.6l-2-7.1ZM261.8 82.5h6.1v-2.2h-8.1c-.7 0-1.4-.1-2-.4a4.5 4.5 0 0 0 4 2.6ZM264.6 85.2l-2 .4v5.1h2v-5.5ZM274.8 57.9c.3.6.5 1.3.5 2v8.6l-5.3 1.3v2.5l7.4-1.7V62a4.5 4.5 0 0 0-2.6-4ZM91.5 57.9c.3.6.5 1.3.5 2v33.7a4.6 4.6 0 0 1-4.5 4.6h-11c-.7 0-1.4-.2-2-.5a4.5 4.5 0 0 0 4 2.5h11a4.6 4.6 0 0 0 4.6-4.5V61.9a4.5 4.5 0 0 0-2.6-4ZM112 73h2.1v-8.3h3.3v-2h-5.3V73ZM124.2 82a4.4 4.4 0 0 0 2.6-4V62a4.5 4.5 0 0 0-2.5-4.2c.3.7.4 1.3.4 2v16a4.4 4.4 0 0 1-2.5 4.1l3 18.2h-5.6l.4 2.1h7.3l-3-18.3ZM114.9 80.3H112v17.8h-5.3v2.1h7.3V82.5h1.1l-.3-2.2ZM143.9 90.7h2v-26h3.3v-2H144v28ZM46.5 73h2v-8.3h3.3v-2h-5.3V73ZM61.3 74.5V62a4.5 4.5 0 0 0-2.5-4c.3.6.4 1.3.4 2v12.6a4.5 4.5 0 0 1-1.6 3.4 5.2 5.2 0 0 1 1.7 3.7v14a4.6 4.6 0 0 1-4.7 4.5H41.2v2.1h15.6a4.6 4.6 0 0 0 4.5-4.5v-14a5.2 5.2 0 0 0-1.7-3.7 4.4 4.4 0 0 0 1.7-3.5Z"/><path d="M156.6 59.9c0-.7-.1-1.4-.5-2a4.5 4.5 0 0 1 2.6 4v33.8a4.6 4.6 0 0 1-4.6 4.5h-11a4.5 4.5 0 0 1-4-2.5c.6.3 1.3.5 2 .5h11a4.6 4.6 0 0 0 4.5-4.6V60ZM178.8 90.7h-2.1v-28h5.3v2h-3.2v26ZM275.3 77.5c0-.7-.2-1.3-.5-2a4.5 4.5 0 0 1 2.5 4.1v16.1a4.6 4.6 0 0 1-4.5 4.5h-11a4.5 4.5 0 0 1-4-2.5c.6.3 1.3.5 2 .5h11a4.6 4.6 0 0 0 4.5-4.6v-16ZM262.6 73V62.6h5.3v2.1h-3.3V73h-2ZM295.3 80.3h.7l1.4 4.5v15.4h-7.3v-2h5.2V80.2ZM308.3 57.4h2.8l-6.9 21.3 6.9 21.5h-7.4v-.2L303 98h6l-6.9-21.4 6.2-19.3ZM328.3 98.1V57.4h2v42.8h-7.2v-2h5.2ZM359.2 82.4l5.7-5.7 2 2-5.6 5.7-2-2ZM9.6 82.4l5.7-5.7 2 2-5.6 5.7-2.1-2ZM48.6 90.7h-2.1V80.3h5.3v2.2h-3.2v8.2ZM81.3 90.7h-2v-28h5.3v2h-3.3v26Z"/></g><path fill-rule="evenodd" clip-rule="evenodd" d="M119.7 0c7 0 6.5 9-.6 11.4 6.8 4.5 1.9 17.2-8.6 17.2-12.4 0-14.6-13.7-7.2-18.4l1.4 1.8c-3.5 2.2-4.2 7.2-1.7 10.6.5-.6 1-1.3 1.3-2L114 4c1.6-2.7 3.8-4.1 5.8-4.1Zm-14.5 24.6c1.6.9 3.4 1.3 5.1 1.2 8.6 0 11.9-12.2 3.7-14h-1L107 22c-.5.9-1 1.7-1.8 2.5ZM117 4.8l-2.9 5c3.6-.1 5.7-1 7-3.5 1.8-3.3-1.5-6-4.1-1.5Z"/><path fill-rule="evenodd" clip-rule="evenodd" d="m257.3 19.1.2-.2a2.3 2.3 0 0 1 1.4 1.1c-2.9 3.4-6.2 6.4-11.4 6.5h-.2a3.9 3.9 0 0 1-3.9-2.8l2-1a1.3 1.3 0 0 0 .8.8 1.4 1.4 0 0 0 1.8-.8l5.3-9.2c1-1.6-1.5-3.6-5.5 1.7l-10.6 18.4h-3.5l6.4-11.1c-1.2.5-2.5.9-3.8 1h-.8c-3.8 4.7-10 3.9-10-.6-2.2 2-4.5 3.6-6.5 3.6-2.9 0-4-2.4-2.5-5l4.6-8c1.6-2.6-.8-3.5-6.3 3.4l-5.4 9.3H206l1.2-2.1c-1.6 1.2-3.5 2-5.4 2.3h-.1l-1 .1a3.9 3.9 0 0 1-4-2.8l2.2-1.2a2 2 0 0 0 1.7 1.3c2.2 0 2.6-2.9 3-6 .3-1.4.5-3 1-4.3l-.7 1-4.3 5.5c-3 3.4-6.4 6.5-9.2 6.5-2.9 0-4-2.4-2.5-5l3.8-6.5a1.8 1.8 0 0 0-.2-2l-.5-.6-.7 1-5.1 6.6c-3 3.4-7 6.6-11 6.6-3.1 0-5-2-4.8-4.5a10.3 10.3 0 0 1-5.4 1.4 7.8 7.8 0 0 1-6 3.2c-2.3 0-4-1.3-4-3.7-2.3 2-4.5 3.6-6.6 3.6-2.8 0-3.9-2.4-2.4-5l3.7-6.5a1.7 1.7 0 0 0-.2-2l-.4-.6-.7.9c-2.4 3.2-3.6 4.9-5.2 6.7-2.9 3.4-6.3 6.5-9.2 6.5-1.8 0-2.9-1-3-2.3-1.7 1.4-3.5 2.3-5 2.3-2.8 0-3.9-2.4-2.4-5l5-8.6c1.5-2.6 4.1-4 6-4a3.7 3.7 0 0 1 3.8 3.3h2l-5.7 10c-.8 1.5-.4 2 .4 2 1.5 0 4-2.3 6.6-5.3l.2-.2c2.3-2.8 4.4-5.8 6-8l-.3-.4c-1.3-1.6-1.1-3.6.9-5.4l1.8 2h-.1a1.4 1.4 0 0 0-.5 1 1.4 1.4 0 0 0 .4 1l2 2.4c1.1 1.4 1.7 2.7.5 4.8l-3.5 6.2c-.9 1.4-.4 2 .4 2 1.5 0 4-2.3 6.6-5.3l.2-.2L165 1.8h3.6l-4.5 7.7c.6-.4 1.5-.7 2.3-.7h.4a3 3 0 0 1 2.8 3.1 8.7 8.7 0 0 1-1.3 4l-3.4 5.8a7.5 7.5 0 0 0 5.4-2.6l.2-.2 3.4-6a7.5 7.5 0 0 1 6.6-4c2.8 0 4.7 2.4 2.8 5.7l-.5.9c-2.7 4.5-7 5-9.2 4l-.4.6c-1.6 2.9-.3 4.3 1.9 4.3 2.4 0 5.7-2.4 8.3-5.3l.2-.3c2.2-2.7 4.3-5.6 5.8-7.8l.1-.2-.2-.4c-1.3-1.6-1.1-3.6.9-5.4l1.8 2h-.1a1.4 1.4 0 0 0-.4 1 1.4 1.4 0 0 0 .4 1l2 2.4c1.1 1.4 1.7 2.7.5 4.8l-3.6 6.2c-.8 1.5-.3 2 .5 2 1.5 0 4-2.3 6.6-5.3l.2-.3c2.5-3 5-6.5 6.7-8.8l1.1-1.5 2.7 1.4a28.4 28.4 0 0 0-2.1 8.4c-.3 1.7-.5 3.3-1 4.6 1.6-1 3-2.3 4.3-3.8l.2-.2 9.8-17.2h3.5l-5.7 9.8c1.9-1.8 3.5-2.6 5-2.6 2 0 3.5 1.9 2 4.6l-5.2 9c-.8 1.4-.3 1.9.4 1.9 1.6 0 4-2.3 6.6-5.3l.2-.2 1.5-2.5 1.7-3c2-3.5 4.1-4.6 6.9-4.6 3.3 0 5.3 3.5 3.1 7.2l-3.3 5.8a7.6 7.6 0 0 0 5.3-2.7l.3-.2 5.5-9.6h3.5l-.7 1.2c3.6-3.2 9-1.3 5.7 4.3l-4 6.7-.6 1.1-.8 1.5c2.5-1 4.7-2.8 6.5-5Zm-76.7-4.4c2-3.7-1.6-4.3-3.6-.8l-2.2 4c1.3.5 3.6.5 5.3-2.4l.5-.8ZM126 24.4c1.5 0 3.6-1.6 5.7-5l2.9-4.8c1.6-3.2-2.1-4-4-.7l-5 8.6c-.8 1.4-.4 2 .4 2Zm31.4-.4c.3.2.6.3 1 .3a3.3 3.3 0 0 0 2.6-1.8 5.2 5.2 0 0 1-2.2-3.6l-1.2 2.2a4 4 0 0 0-.6 1.8v.2c0 .3.2.7.4.9Zm3.5-4.6c.2.6.6 1 1.1 1.5l3.6-6.2a4.3 4.3 0 0 0 .7-2.3 1.4 1.4 0 0 0-.4-1 1.4 1.4 0 0 0-1-.4c-2 0-4.4 4.2-4.4 6.7 0 .6.1 1.2.4 1.7Zm73.5-.3h.2l2.6-4.4c2.1-3.7-1.3-5.4-3.8-1.2l-4.3 7.6c-2.1 3.7 2 4.2 3.6 1.4v-.1l-.3-1.2a2 2 0 0 1 1.2-2l.8-.1Z"/><path d="M5.7 67.1 0 72.8l5.7 5.7 5.7-5.7L5.7 67ZM355.3 67.1l-5.6 5.7 5.7 5.7 5.6-5.7-5.7-5.7ZM166.8 123h1.4c5.4.3 9.6 1.8 12.3 4.7 2.7-3 7-4.4 12.4-4.7h1.3c7.4.5 12.3 4 17.2 7.4 3.1 2.2 6.2 4.3 10 5.7 1.4.7 3 1 4.7 1 2.5-.2 4-2.7 3.7-5.5-.3-3-3.3-5.6-6.5-4.1a4.2 4.2 0 0 0-1.3.9c-.3.3-.5.6-1 .5-.6-.5 0-1.2.2-1.6a6 6 0 0 1 6.1-3c5.6.3 10.6 5.2 9.7 12.7-1.9 11-12 14-24 15h-3.9a48 48 0 0 1-28.5-11 48.7 48.7 0 0 1-28.7 11H148c-12-1-22.3-4-24-15.4-.7-8 4.1-12 9.7-12.5a6 6 0 0 1 6.2 3.1c.3.5.7 1.1.2 1.6-.5.1-.8-.2-1-.4l-.2-.2a4 4 0 0 0-2.8-1.2c-3.8-.1-6 4.1-4.5 7.6a4.3 4.3 0 0 0 3.4 2.5c1.6 0 3.2-.4 4.7-1a89.2 89.2 0 0 0 9.3-5.4c5.2-3.5 10.2-7 17.8-7.7Z"/><path fill-rule="evenodd" clip-rule="evenodd" d="M54.9 70.5c.2-.6.4-1.3.4-2V56a4.6 4.6 0 0 0-4.5-4.5H35.2v42.8h15.6a4.6 4.6 0 0 0 4.5-4.5v-14a5.2 5.2 0 0 0-1.6-3.7c.5-.4.9-1 1.2-1.5ZM42.6 58.7h5.3v10.4h-5.3V58.7Zm0 17.7h5.3v10.4h-5.3V76.4ZM86.7 52.7c-.8-.8-2-1.3-3.1-1.3h-11a4.5 4.5 0 0 0-4.6 4.5v33.8a4.6 4.6 0 0 0 4.5 4.5h11a4.6 4.6 0 0 0 4.6-4.5V55.9c0-1.2-.5-2.3-1.4-3.2Zm-11.3 6h5.3v28.1h-5.3v-28ZM111 76.4l3 17.8h7.3l-3-18.2a4.4 4.4 0 0 0 2.5-4V56a4.5 4.5 0 0 0-4.4-4.6h-15.6v42.8h7.4V76.4h2.8ZM108 58.7h5.4v10.4H108V58.7ZM151.3 52.7c-.8-.8-2-1.3-3.1-1.3H137a4.5 4.5 0 0 0-4.5 4.5v33.8a4.6 4.6 0 0 0 4.6 4.5h11a4.6 4.6 0 0 0 4.5-4.5V55.9c0-1.2-.5-2.3-1.3-3.2Zm-11.3 6h5.3v28.1H140v-28ZM184.1 52.7c-.8-.8-2-1.3-3.2-1.3h-15.5v42.8H181a4.6 4.6 0 0 0 4.6-4.5V55.9c0-1.2-.5-2.3-1.4-3.2Zm-11.3 6h5.3v28.1h-5.3v-28Z"/><path d="M206 51.4h-7.4v42.8h7.3V51.4ZM238.6 94.2V51.4h-7.4v17.5l-5.4-17.5h-7.3v42.8h7.4V75.5l5.3 18.7h7.4ZM270 70.4c-.8-.8-2-1.3-3.2-1.3h-8.1V58.7h5.3v7.6l7.4-1.7v-8.7a4.6 4.6 0 0 0-4.5-4.5h-11a4.5 4.5 0 0 0-4.6 4.5v16a4.5 4.5 0 0 0 4.6 4.5h8v10.4h-5.2v-7.6l-7.4 1.7v8.8a4.6 4.6 0 0 0 4.5 4.5h11a4.6 4.6 0 0 0 4.6-4.5V73.6c0-1.2-.5-2.3-1.4-3.2ZM305 94.2l-6.8-21.5 7-21.3h-7.5L292 69h-.6V51.4h-7.3v42.8h7.3V76.4h.7l5.5 17.6v.2h7.5ZM324.4 51.4h-7.3v42.8h7.3V51.4Z"/></g><defs><clipPath id="a"><path fill="#fff" d="M0 0h367v152H0z"/></clipPath></defs></svg>